<svg width="580" height="400" xmlns="http://www.w3.org/2000/svg">
 <!-- Created with Method Draw - http://github.com/duopixel/Method-Draw/ -->

 <g>
  <title>background</title>
  <rect fill="#fff" id="canvas_background" height="402" width="582" y="-1" x="-1"/>
  <g display="none" overflow="visible" y="0" x="0" height="100%" width="100%" id="canvasGrid">
   <rect fill="url(#gridpattern)" stroke-width="0" y="0" x="0" height="100%" width="100%"/>
  </g>
 </g>
 <g>
  <title>Layer 1</title>
  <g stroke="null" id="svg_5">
   <path stroke="null" id="svg_4" d="m271.575955,189.016441l36.848072,0c0.782756,0 1.417234,-0.634478 1.417234,-1.417234l0,-3.543084c0,-0.782756 -0.634478,-1.417234 -1.417234,-1.417234l-36.848072,0c-0.782756,0 -1.417234,0.634478 -1.417234,1.417234l0,3.543084c0,0.782756 0.634478,1.417234 1.417234,1.417234zm0,14.172335l36.848072,0c0.782756,0 1.417234,-0.634478 1.417234,-1.417234l0,-3.543084c0,-0.782756 -0.634478,-1.417234 -1.417234,-1.417234l-36.848072,0c-0.782756,0 -1.417234,0.634478 -1.417234,1.417234l0,3.543084c0,0.782756 0.634478,1.417234 1.417234,1.417234zm0,14.172335l36.848072,0c0.782756,0 1.417234,-0.634478 1.417234,-1.417234l0,-3.543084c0,-0.782756 -0.634478,-1.417234 -1.417234,-1.417234l-36.848072,0c-0.782756,0 -1.417234,0.634478 -1.417234,1.417234l0,3.543084c0,0.782756 0.634478,1.417234 1.417234,1.417234z" fill="#ffffff"/>
  </g>
 </g>
</svg>