<svg width="64" height="64" xmlns="http://www.w3.org/2000/svg">

 <g>
  <title>background</title>
  <rect x="-1" y="-1" width="66" height="66" id="canvas_background" fill="none"/>
 </g>
 <g>
  <title>Layer 1</title>
  <path fill="#f71621" d="m35.852,54.667l-2.444,-6.741l1.778,-3.111l-6.222,0l1.778,3.111l-2.444,6.741l7.554,0z" id="svg_1"/>
  <path fill="#000" d="m10.068,53.709l43.864,0l0,-0.467c0,-4.664 -2.959,-8.824 -7.363,-10.357l-4.524,-1.574c-2.828,2.858 -6.37,4.424 -10.047,4.424s-7.219,-1.564 -10.045,-4.423l-4.524,1.574c-4.404,1.531 -7.363,5.693 -7.363,10.357l0.001,0.465l0.001,0.001zm44.861,1.995l-45.857,0c-0.552,0 -0.998,-0.447 -0.998,-0.996l0,-1.464c0,-5.511 3.497,-10.43 8.703,-12.24l5.127,-1.785c0.376,-0.129 0.791,-0.024 1.064,0.267c2.512,2.742 5.72,4.254 9.032,4.254s6.52,-1.512 9.03,-4.254c0.269,-0.292 0.688,-0.398 1.064,-0.267l5.127,1.785c5.208,1.808 8.705,6.725 8.705,12.24l0,1.464c0,0.55 -0.447,0.996 -0.996,0.996l0,0l-0.001,0z" id="svg_2"/>
  <path fill="#000" d="m32,41.746c-4.912,0 -9.277,-3.968 -11.09,-9.972c-1.643,-0.099 -2.868,-2.208 -2.868,-4.981c0,-2.817 1.265,-4.946 2.948,-4.983l0.011,0c0.557,-0.064 1.039,0.301 1.105,0.847c0.004,0.02 0.008,0.065 0.008,0.086c0.017,0.292 -0.095,0.585 -0.305,0.787c-0.213,0.204 -0.503,0.312 -0.789,0.286c-0.009,0 -0.02,-0.002 -0.03,-0.004c-0.282,0.107 -0.953,1.153 -0.953,2.981c0,1.931 0.749,2.991 0.996,2.991c0.269,-0.168 0.632,-0.219 0.931,-0.099c0.293,0.12 0.542,0.352 0.623,0.662c1.396,5.627 5.178,9.408 9.414,9.408s8.017,-3.78 9.415,-9.408c0.079,-0.308 0.297,-0.563 0.592,-0.684s0.63,-0.092 0.901,0.079c0.32,0.093 1.054,-1.02 1.054,-2.948c0,-1.828 -0.671,-2.875 -0.955,-2.983c-0.009,0.002 -0.02,0.002 -0.03,0.004c-0.297,0.022 -0.598,-0.079 -0.809,-0.293s-0.316,-0.516 -0.279,-0.815c0.064,-0.546 0.57,-0.976 1.11,-0.896c0.092,0.009 0.181,0.034 0.264,0.065c1.623,0.312 2.693,2.325 2.693,4.918c0,2.774 -1.224,4.88 -2.868,4.981c-1.812,6.005 -6.177,9.972 -11.089,9.972l0,0l0,-0.001z" id="svg_3"/>
  <path fill="#000" d="m19.704,24.778c-0.431,0 -0.829,-0.281 -0.958,-0.715c-0.08,-0.268 -1.909,-6.612 1.459,-11.857c2.174,-3.386 5.971,-5.483 11.286,-6.233c5.15,-0.725 8.34,2.371 9.539,4.463c0.681,0.171 1.804,0.63 2.794,1.859c1.818,2.256 2.308,6 1.46,11.128c-0.09,0.545 -0.606,0.914 -1.15,0.823c-0.545,-0.09 -0.914,-0.605 -0.824,-1.15c0.926,-5.594 -0.033,-8.25 -1.001,-9.492c-0.91,-1.168 -1.96,-1.269 -2.005,-1.272l-0.579,-0.048l-0.262,-0.528c-0.087,-0.184 -2.236,-4.572 -7.694,-3.802c-4.712,0.665 -8.037,2.46 -9.882,5.333c-2.878,4.482 -1.241,10.15 -1.224,10.207c0.157,0.529 -0.144,1.086 -0.674,1.244c-0.094,0.027 -0.19,0.04 -0.284,0.04l-0.001,0z" id="svg_6"/>
  <path fill="#000" d="m42.519,23.815c-0.402,0 -0.782,-0.245 -0.934,-0.643c-0.239,-0.626 -0.643,-1.323 -1.203,-2.077c-1.318,0.346 -4.271,0.751 -8.632,-0.741c-0.516,-0.176 -0.99,-0.345 -1.431,-0.502c-4.222,-1.502 -4.663,-1.659 -8.463,3.347c-0.334,0.44 -0.961,0.526 -1.401,0.192s-0.526,-0.961 -0.192,-1.401c4.499,-5.928 5.937,-5.727 10.727,-4.022c0.433,0.154 0.9,0.32 1.407,0.494c5.109,1.748 7.904,0.566 7.932,0.554l0.699,-0.308l0.49,0.589c0.926,1.144 1.559,2.178 1.935,3.161c0.197,0.516 -0.061,1.094 -0.577,1.291c-0.118,0.044 -0.238,0.065 -0.357,0.065l0,0.001z" id="svg_7"/>
 </g>
</svg>