<svg width="64" height="64" xmlns="http://www.w3.org/2000/svg">
 <title>tw-certificate</title>

 <g>
  <title>Layer 1</title>
  <g stroke="null" id="svg_5">
   <path stroke="null" fill="#ffffff" d="m46.66736,54.84104l-4.73432,-16.40421l-0.09603,0.01707c-0.0939,-0.17926 -0.23794,-0.32757 -0.41933,-0.43001c-0.24755,-0.13978 -0.53351,-0.17499 -0.80239,-0.09603s-0.49402,0.25501 -0.63273,0.50043c-0.13978,0.24755 -0.17393,0.53244 -0.09603,0.80239l3.76975,13.06021l-3.4187,-2.66753l-0.01707,0.02134c-0.17926,-0.08429 -0.37986,-0.11737 -0.57939,-0.09176c-0.28169,0.03415 -0.53351,0.17713 -0.70849,0.40546c-0.07149,0.0971 -0.12484,0.19847 -0.16539,0.31264l-1.42659,3.65771l-3.6225,-12.57471c-0.07683,-0.26889 -0.25501,-0.49509 -0.50043,-0.63273s-0.53244,-0.17286 -0.81093,-0.0939c-0.08429,0.02774 -0.17286,0.05869 -0.25822,0.1099c-0.40546,0.06188 -0.74478,0.35745 -0.85681,0.75117l-3.58088,12.4296l-1.42126,-3.64491c-0.03948,-0.12378 -0.0939,-0.22834 -0.17286,-0.33077c-0.17286,-0.22408 -0.42253,-0.36599 -0.70209,-0.40226c-0.20167,-0.02561 -0.40333,0.00747 -0.58365,0.09176l-0.016,-0.02134l-0.18566,0.14511c0,0 -0.00107,0 -0.00107,0.00107l-3.23197,2.52241l3.68759,-12.80519c0.07789,-0.27102 0.04481,-0.55592 -0.09283,-0.80239s-0.36492,-0.42467 -0.637,-0.50043c-0.27102,-0.07896 -0.55698,-0.04588 -0.80239,0.09283s-0.4236,0.36492 -0.50043,0.63594l-4.59241,15.939c-0.07896,0.27422 -0.04481,0.56338 0.09496,0.81306c0.13871,0.24755 0.36385,0.42574 0.6338,0.5015c0.35318,0.10137 0.74264,0.01067 1.00726,-0.22514l4.62975,-3.61183l2.07107,5.30518c0.16432,0.42147 0.55805,0.67435 0.98379,0.67435c0.12911,0 0.26248,-0.02347 0.39159,-0.07256c0.34358,-0.12591 0.59966,-0.43214 0.66154,-0.77678l3.62997,-12.60032l3.62464,12.58005c0.06935,0.35852 0.31584,0.65408 0.66154,0.79493c0.26462,0.10244 0.55271,0.0971 0.81413,-0.01493c0.26248,-0.1131 0.46415,-0.32117 0.56658,-0.58472l2.07107,-5.30518l4.61375,3.59796c0.26675,0.25288 0.65834,0.34571 1.02326,0.24008c0.55485,-0.15898 0.88776,-0.76078 0.72983,-1.31456l0,0.00107l0.00001,-0.00002z" id="svg_1"/>
   <path stroke="null" fill="#ffffff" d="m51.10719,25.08639l-2.882,-3.16048l2.02625,-4.12293c0.03734,-0.06508 0.06508,-0.12698 0.08856,-0.191c0.0971,-0.26462 0.08429,-0.55271 -0.03628,-0.80986s-0.33397,-0.45135 -0.6018,-0.54631l-4.0269,-1.45007l-0.11951,-4.59668c0,-0.06082 0,-0.13764 -0.0128,-0.1974c-0.07896,-0.57619 -0.6146,-0.97952 -1.19399,-0.90483l-4.2339,0.57512l-2.24925,-4.02476c-0.02774,-0.05015 -0.06402,-0.1131 -0.1003,-0.16112c-0.34571,-0.47802 -1.01366,-0.58899 -1.48528,-0.24862l-3.48059,2.48613l-3.89565,-2.54162c-0.04268,-0.03095 -0.10137,-0.07469 -0.15259,-0.09176c-0.51643,-0.26462 -1.1545,-0.05762 -1.42339,0.46415l-1.92702,3.81776l-4.57001,-0.43534c-0.07576,-0.016 -0.14298,-0.016 -0.20273,-0.016c-0.28382,0 -0.55058,0.1131 -0.75117,0.31904s-0.3073,0.47589 -0.30089,0.75864l0.06935,4.27337l-4.3374,1.78511c-0.02027,0.00854 -0.04054,0.01814 -0.09817,0.04268c-0.51643,0.29343 -0.70103,0.9283 -0.42147,1.44473l2.04653,3.75694l-2.98976,3.56168l-0.08749,0.11951c-0.16112,0.23794 -0.21874,0.5207 -0.16432,0.79812c0.05442,0.27528 0.21554,0.51536 0.45455,0.67755l3.55848,2.37516l-0.99125,4.5604c-0.00854,0.04054 -0.02027,0.09176 -0.01814,0.12378c-0.03308,0.28276 0.04802,0.56018 0.22727,0.78105c0.17713,0.21874 0.43107,0.35638 0.7149,0.38946l4.25524,0.44814l1.20999,4.41315c0.01387,0.07896 0.02881,0.14084 0.05442,0.21127c0.21233,0.54417 0.8312,0.81413 1.38178,0.59966l3.97675,-1.58025l3.18716,3.40697c0.02561,0.02881 0.05975,0.06829 0.09817,0.09496c0.20486,0.16752 0.44814,0.24968 0.69036,0.24968c0.29983,0 0.59539,-0.12698 0.80666,-0.37132l2.78383,-3.23945l4.32459,1.51195c0.06402,0.03415 0.13551,0.05975 0.2006,0.07362c0.56978,0.13231 1.14277,-0.22621 1.27507,-0.79706l0.96457,-4.16561l4.55187,-0.67542c0.08536,0 0.14938,-0.01387 0.19847,-0.02774c0.56872,-0.15791 0.89949,-0.7277 0.75437,-1.29855l-1.08408,-4.13573l3.74947,-2.73261c0.04481,-0.02988 0.09176,-0.06402 0.12378,-0.0971c0.43748,-0.39906 0.46735,-1.05847 0.06722,-1.50235l-0.00213,0.00213l0,0.00001zm-6.13851,4.22642l0.95391,3.6353l-4.17841,0.62207c-0.46202,0.07789 -0.8184,0.43534 -0.88242,0.87068l-0.84827,3.66411l-3.97888,-1.38818c-0.44387,-0.15578 -0.94003,-0.0032 -1.19719,0.35852l-2.44772,2.85318l-2.88413,-3.07726c-0.2102,-0.22621 -0.50043,-0.34358 -0.78745,-0.34358c-0.15685,0 -0.31264,0.03521 -0.45348,0.10883l-3.47952,1.37751l-1.11609,-4.06851c-0.12805,-0.45241 -0.5271,-0.76612 -0.97631,-0.77998l-3.7292,-0.39586l0.90269,-4.12506c0.10244,-0.44814 -0.10883,-0.92403 -0.5015,-1.14704l-3.12207,-2.08174l2.71981,-3.23624c0.29876,-0.36385 0.32543,-0.87495 0.07683,-1.2548l-1.79151,-3.28639l3.89672,-1.60052c0.43534,-0.16859 0.7117,-0.62847 0.65834,-1.06914l-0.05656,-3.74947l4.20829,0.39906c0.46841,0.04268 0.90056,-0.22301 1.06808,-0.63594l1.69655,-3.35468l3.535,2.30261c0.38946,0.24968 0.90803,0.21767 1.2452,-0.06722l3.04952,-2.17244l2.07214,3.70466c0.23154,0.40119 0.69249,0.60926 1.1353,0.5175l3.7196,-0.5111l0.1163,4.21256c0.01387,0.47055 0.32864,0.87068 0.76398,0.98911l3.52647,1.28255l-1.86514,3.78682c-0.20913,0.43107 -0.1099,0.94964 0.22301,1.24307l2.52241,2.75395l-3.40483,2.484c-0.37559,0.26889 -0.53457,0.76185 -0.39053,1.18011l0.00107,-0.00107l-0.00002,-0.00001z" id="svg_2"/>
   <path stroke="null" fill="#e6c07b" d="m39.66884,16.60152c-1.92275,-1.91422 -4.46971,-2.96949 -7.17244,-2.96949c-2.71021,0 -5.25823,1.05421 -7.17351,2.97056c-1.91422,1.92382 -2.96949,4.47077 -2.96949,7.17244c0,2.71021 1.05421,5.25823 2.97056,7.17351c1.92275,1.91528 4.46971,2.96949 7.17244,2.96949c2.71021,0 5.25823,-1.05421 7.17351,-2.97056c1.91422,-1.92382 2.96949,-4.47077 2.96949,-7.17244c0,-2.71127 -1.05421,-5.25823 -2.97056,-7.17351zm0.84294,7.17031c0,2.14576 -0.83227,4.1592 -2.34315,5.6701c-1.51942,1.51088 -3.53393,2.34422 -5.67116,2.34422c-2.14576,0 -4.1592,-0.83227 -5.6701,-2.34315c-1.51195,-1.51942 -2.34422,-3.53393 -2.34422,-5.67116c0,-2.14576 0.83227,-4.1592 2.34315,-5.6701c1.51942,-1.51195 3.53393,-2.34422 5.67116,-2.34422c2.14576,0 4.1592,0.83227 5.6701,2.34315c1.51195,1.51942 2.34422,3.53393 2.34422,5.67116z" id="svg_3"/>
  </g>
 </g>
</svg>