<svg width="64" height="64" xmlns="http://www.w3.org/2000/svg">
 <title>tw-vulnerability-management</title>

 <g>
  <title>Layer 1</title>
  <path fill-opacity="0.3" d="m54.545,31.023l-4.42,0c-0.465,-9.287 -7.918,-16.762 -17.195,-17.267l0,-4.347c0,-0.552 -0.448,-1 -1,-1s-1,0.448 -1,1l0,4.347c-9.276,0.504 -16.729,7.98 -17.194,17.267l-4.42,0c-0.552,0 -1,0.448 -1,1s0.448,1 1,1l4.431,0c0.54,9.214 7.959,16.609 17.183,17.111l0,4.503c0,0.552 0.448,1 1,1s1,-0.448 1,-1l0,-4.503c9.225,-0.501 16.643,-7.897 17.183,-17.111l4.431,0c0.552,0 1,-0.448 1,-1s-0.447,-1 -0.999,-1zm-6.425,0l-3.712,0c-0.45,-6.141 -5.348,-11.063 -11.478,-11.55l0,-3.712c8.173,0.5 14.728,7.078 15.19,15.261l0,0.001zm-17.189,-1.948c-0.9,0.315 -1.609,1.038 -1.9,1.948l-2.056,0c0.375,-2.016 1.949,-3.616 3.955,-4.02l0,2.072l0.001,0zm0,3.949l0,1.793c-0.848,-0.296 -1.524,-0.956 -1.842,-1.793l1.842,0zm2,0l1.843,0c-0.319,0.837 -0.995,1.497 -1.843,1.793l0,-1.793zm0,-2.001l0,-1.949c0.9,0.314 1.609,1.038 1.9,1.949l-1.9,0zm-2,-9.544c-5.027,0.476 -9.032,4.507 -9.472,9.544l-2.005,0c0.45,-6.141 5.348,-11.062 11.478,-11.55l0,2.005l-0.001,0.001zm-3.925,11.545c0.425,1.943 1.971,3.47 3.924,3.865l0,5.524c-4.976,-0.472 -8.952,-4.424 -9.46,-9.389l5.536,0zm5.925,3.864c1.954,-0.395 3.5,-1.922 3.924,-3.865l5.536,0c-0.508,4.965 -4.485,8.917 -9.461,9.389l0,-5.524l0.001,0zm3.954,-5.865c-0.375,-2.016 -1.949,-3.616 -3.955,-4.02l0,-5.524c5.028,0.476 9.033,4.507 9.473,9.544l-5.518,0zm-21.132,2.001l3.712,0c0.52,6.068 5.388,10.911 11.466,11.394l0,3.712c-8.12,-0.497 -14.642,-6.995 -15.177,-15.105l-0.001,-0.001zm17.178,15.105l0,-3.712c6.079,-0.483 10.946,-5.326 11.467,-11.394l3.712,0c-0.536,8.11 -7.057,14.608 -15.178,15.105l-0.001,0.001z" id="svg_1" fill="#e6be7b"/>
 </g>
</svg>