<svg width="64" height="64" xmlns="http://www.w3.org/2000/svg" style="vector-effect: non-scaling-stroke;" stroke="null">
 <g stroke="null">
  <title stroke="null">background</title>
  <rect stroke="null" x="-1" y="-1" width="9.999877" height="9.999877" id="canvas_background" fill="none"/>
 </g>

 <g stroke="null">
  <title stroke="null">Layer 1</title>
  <g stroke="null" id="svg_7">
   <path stroke="null" fill="#000" d="m31.999999,43.556769c-0.195611,0 -0.391221,-0.046458 -0.569716,-0.140595l-28.302415,-14.894528c-0.401002,-0.211504 -0.652851,-0.628399 -0.652851,-1.081971s0.251849,-0.870467 0.652851,-1.081971l28.302415,-14.894528c0.356989,-0.187053 0.782443,-0.187053 1.139432,0l28.302415,14.894528c0.401002,0.211504 0.652851,0.628399 0.652851,1.081971s-0.251849,0.870467 -0.652851,1.081971l-28.302415,14.89575c-0.178495,0.092915 -0.374105,0.140595 -0.569716,0.140595l0,-0.001223zm-25.677564,-16.117094l25.677564,13.513028l25.677564,-13.513028l-25.677564,-13.511805l-25.677564,13.511805z" id="svg_1"/>
   <path stroke="null" fill="#000" d="m31.847178,51.295615c-0.163824,0 -0.327648,-0.033009 -0.481691,-0.099028l-9.753636,-4.176287c-0.022006,-0.009781 -0.044012,-0.019561 -0.066019,-0.030564c-2.390118,-1.196893 -3.459863,-3.511211 -3.459863,-5.272929l0,-5.570013l2.445133,0l0,5.571236c0,1.001282 0.713979,2.371779 2.079586,3.071087l9.197368,3.937887l7.848877,-3.926884c2.01479,-1.007395 3.495318,-2.479365 3.508766,-2.979395c-0.003668,-0.0379 -0.00489,-0.068464 -0.00489,-0.106363l0,-5.56879l2.445133,0l0,5.52111c0.177272,2.722656 -4.336443,5.060203 -4.856034,5.320609l-8.356242,4.179955c-0.171159,0.08558 -0.358212,0.128369 -0.546487,0.128369z" id="svg_2"/>
   <path stroke="null" fill="#f71621" d="m51.24075,52.675892c-0.132037,0 -0.266519,-0.022006 -0.397334,-0.067241c-0.891251,-0.306864 -3.799737,-1.47686 -3.799737,-3.63469c0,-1.217676 -0.194388,-10.06539 -0.251849,-12.671902l-14.804058,-7.790194c-0.597835,-0.3142 -0.826455,-1.053852 -0.512255,-1.651687s1.05263,-0.826455 1.651687,-0.512255l15.441015,8.125177c0.393666,0.206614 0.64307,0.611283 0.652851,1.053852c0.011003,0.489027 0.268965,11.995823 0.268965,13.447009c0.09536,0.306864 1.182222,0.989056 2.150494,1.32404c0.63818,0.220062 0.978053,0.915702 0.757991,1.553882c-0.174827,0.507365 -0.649183,0.825232 -1.156548,0.825232l-0.001223,-0.001223z" id="svg_3"/>
   <path stroke="null" fill="#f71621" d="m34.811902,27.353483c0,1.244573 -1.00984,2.254413 -2.254413,2.254413s-2.254413,-1.00984 -2.254413,-2.254413c0,-1.244573 1.00984,-2.254413 2.254413,-2.254413s2.254413,1.00984 2.254413,2.254413z" id="svg_4"/>
  </g>
 </g>
</svg>