<svg width="64" height="64" xmlns="http://www.w3.org/2000/svg">
 <g>
  <title>background</title>
  <rect x="-1" y="-1" width="9.999998" height="9.999998" id="canvas_background" fill="none"/>
 </g>

 <g>
  <title>Layer 1</title>
  <path fill="#ffffff" d="m53.024,55.778l-41.926,0c-1.641,0 -2.976,-1.335 -2.976,-2.976l0,-37.487c0,-1.641 1.335,-2.976 2.976,-2.976l41.926,0c1.641,0 2.976,1.335 2.976,2.976l0,37.487c0,1.641 -1.335,2.976 -2.976,2.976zm-41.927,-41.44c-0.538,0 -0.976,0.438 -0.976,0.976l0,37.487c0,0.539 0.438,0.976 0.976,0.976l41.926,0c0.539,0 0.976,-0.438 0.976,-0.976l0,-37.487c0,-0.538 -0.438,-0.976 -0.976,-0.976l-41.926,0z" id="svg_1"/>
  <path fill="#f71621" d="m17.185,17c-0.552,0 -1,-0.448 -1,-1l0,-6.222c0,-0.552 0.448,-1 1,-1s1,0.448 1,1l0,6.222c0,0.552 -0.448,1 -1,1z" id="svg_2"/>
  <path fill="#f71621" d="m46.815,17c-0.552,0 -1,-0.448 -1,-1l0,-6.222c0,-0.552 0.448,-1 1,-1s1,0.448 1,1l0,6.222c0,0.552 -0.448,1 -1,1z" id="svg_3"/>
  <path fill="#ffffff" d="m26.376,23.866l4.728,0l0,4.728l-4.728,0l0,-4.728z" id="svg_4"/>
  <path fill="#ffffff" d="m32.896,23.866l4.728,0l0,4.728l-4.728,0l0,-4.728z" id="svg_5"/>
  <path fill="#ffffff" d="m39.418,23.866l4.728,0l0,4.728l-4.728,0l0,-4.728z" id="svg_6"/>
  <path fill="#ffffff" d="m45.939,23.866l4.728,0l0,4.728l-4.728,0l0,-4.728z" id="svg_7"/>
  <path fill="#ffffff" d="m13.333,30.305l4.728,0l0,4.728l-4.728,0l0,-4.728z" id="svg_8"/>
  <path fill="#ffffff" d="m19.854,30.305l4.728,0l0,4.728l-4.728,0l0,-4.728z" id="svg_9"/>
  <path fill="#ffffff" d="m26.376,30.305l4.728,0l0,4.728l-4.728,0l0,-4.728z" id="svg_10"/>
  <path fill="#f71621" d="m32.896,30.305l4.728,0l0,4.728l-4.728,0l0,-4.728z" id="svg_11"/>
  <path fill="#ffffff" d="m39.418,30.305l4.728,0l0,4.728l-4.728,0l0,-4.728z" id="svg_12"/>
  <path fill="#ffffff" d="m45.939,30.305l4.728,0l0,4.728l-4.728,0l0,-4.728z" id="svg_13"/>
  <path fill="#ffffff" d="m13.333,36.745l4.728,0l0,4.728l-4.728,0l0,-4.728z" id="svg_14"/>
  <path fill="#ffffff" d="m19.854,36.745l4.728,0l0,4.728l-4.728,0l0,-4.728z" id="svg_15"/>
  <path fill="#ffffff" d="m26.376,36.745l4.728,0l0,4.728l-4.728,0l0,-4.728z" id="svg_16"/>
  <path fill="#ffffff" d="m32.896,36.745l4.728,0l0,4.728l-4.728,0l0,-4.728z" id="svg_17"/>
  <path fill="#ffffff" d="m39.418,36.745l4.728,0l0,4.728l-4.728,0l0,-4.728z" id="svg_18"/>
  <path fill="#ffffff" d="m45.939,36.745l4.728,0l0,4.728l-4.728,0l0,-4.728z" id="svg_19"/>
  <path fill="#f71621" d="m13.333,43.184l4.728,0l0,4.728l-4.728,0l0,-4.728z" id="svg_20"/>
  <path fill="#ffffff" d="m19.854,43.184l4.728,0l0,4.728l-4.728,0l0,-4.728z" id="svg_21"/>
  <path fill="#ffffff" d="m26.376,43.184l4.728,0l0,4.728l-4.728,0l0,-4.728z" id="svg_22"/>
  <path fill="#ffffff" d="m32.896,43.184l4.728,0l0,4.728l-4.728,0l0,-4.728z" id="svg_23"/>
  <path fill="#ffffff" d="m55.111,20.556l-45.926,0c-0.552,0 -1,-0.448 -1,-1s0.448,-1 1,-1l45.926,0c0.552,0 1,0.448 1,1s-0.448,1 -1,1z" id="svg_24"/>
  <path fill="#ffffff" d="m44.925,55.592c-0.081,0 -0.162,-0.01 -0.243,-0.03l-0.148,-0.037c-0.445,-0.111 -0.757,-0.511 -0.757,-0.97l0,-9.667c0,-0.552 0.448,-1 1,-1l9.852,0c0.404,0 0.769,0.244 0.924,0.617s0.069,0.804 -0.217,1.09l-9.704,9.704c-0.19,0.19 -0.445,0.293 -0.707,0.293zm0.853,-9.703l0,6.437l6.437,-6.437l-6.437,0z" id="svg_25"/>
 </g>
</svg>