<svg width="64" height="64" xmlns="http://www.w3.org/2000/svg">
 <title>tw-gears</title>

 <g>
  <title>Layer 1</title>
  <path fill-opacity="0.3" fill="#e6be7b" d="m28.13,55.526c-0.365,0 -0.714,-0.2 -0.89,-0.543l-1.678,-3.264c-0.739,0.056 -1.48,0.044 -2.218,-0.034l-1.766,3.203c-0.248,0.451 -0.799,0.638 -1.272,0.435l-4.239,-1.828c-0.473,-0.204 -0.713,-0.734 -0.556,-1.224l1.118,-3.481c-0.567,-0.485 -1.087,-1.02 -1.556,-1.602l-3.496,1.012c-0.494,0.144 -1.017,-0.113 -1.207,-0.591l-1.705,-4.291c-0.19,-0.479 0.014,-1.024 0.472,-1.259l3.244,-1.667c-0.056,-0.748 -0.044,-1.496 0.038,-2.239l-3.185,-1.756c-0.451,-0.249 -0.64,-0.799 -0.436,-1.272l1.828,-4.239c0.204,-0.473 0.733,-0.713 1.224,-0.556l3.481,1.117c0.487,-0.566 1.023,-1.084 1.603,-1.551l-1.014,-3.502c-0.143,-0.495 0.112,-1.017 0.591,-1.208l4.292,-1.705c0.48,-0.191 1.024,0.014 1.259,0.472l1.677,3.264c0.74,-0.054 1.481,-0.04 2.216,0.041l1.768,-3.208c0.249,-0.451 0.8,-0.639 1.272,-0.436l4.239,1.829c0.472,0.204 0.713,0.733 0.556,1.224l-1.127,3.512c0.557,0.48 1.069,1.009 1.531,1.582l3.532,-1.022c0.496,-0.142 1.017,0.112 1.208,0.592l1.704,4.29c0.19,0.479 -0.014,1.023 -0.472,1.259l-3.284,1.688c0.054,0.732 0.041,1.467 -0.037,2.196l3.225,1.778c0.451,0.249 0.639,0.799 0.436,1.272l-1.828,4.239c-0.204,0.472 -0.734,0.714 -1.224,0.556l-3.513,-1.127c-0.48,0.559 -1.008,1.072 -1.58,1.535l1.02,3.528c0.143,0.494 -0.113,1.017 -0.591,1.207l-4.291,1.705c-0.121,0.048 -0.247,0.071 -0.37,0.071l0.001,-0.002zm-1.99,-5.873c0.371,0 0.716,0.207 0.889,0.543l1.576,3.065l2.603,-1.034l-0.958,-3.313c-0.118,-0.407 0.034,-0.843 0.377,-1.09c0.824,-0.592 1.556,-1.303 2.172,-2.112c0.256,-0.337 0.697,-0.474 1.101,-0.346l3.301,1.059l1.109,-2.572l-3.031,-1.671c-0.372,-0.205 -0.574,-0.622 -0.504,-1.041c0.167,-0.999 0.184,-2.016 0.052,-3.023c-0.055,-0.419 0.158,-0.827 0.534,-1.02l3.084,-1.585l-1.034,-2.602l-3.319,0.96c-0.408,0.118 -0.845,-0.034 -1.092,-0.379c-0.591,-0.826 -1.299,-1.558 -2.106,-2.176c-0.336,-0.257 -0.473,-0.697 -0.344,-1.1l1.058,-3.298l-2.572,-1.109l-1.662,3.016c-0.205,0.372 -0.623,0.574 -1.044,0.503c-1.004,-0.171 -2.027,-0.19 -3.04,-0.057c-0.419,0.055 -0.826,-0.159 -1.019,-0.535l-1.574,-3.063l-2.604,1.035l0.953,3.29c0.118,0.408 -0.035,0.847 -0.381,1.093c-0.832,0.592 -1.571,1.305 -2.195,2.121c-0.257,0.336 -0.697,0.474 -1.1,0.345l-3.268,-1.049l-1.11,2.572l2.992,1.649c0.372,0.205 0.574,0.624 0.503,1.043c-0.171,1.009 -0.188,2.039 -0.052,3.06c0.056,0.419 -0.158,0.828 -0.534,1.022l-3.045,1.565l1.035,2.603l3.283,-0.95c0.407,-0.117 0.844,0.033 1.091,0.379c0.598,0.835 1.314,1.572 2.129,2.191c0.338,0.256 0.477,0.698 0.348,1.102l-1.05,3.27l2.572,1.109l1.659,-3.008c0.204,-0.372 0.621,-0.572 1.04,-0.504c1.007,0.167 2.03,0.184 3.041,0.047c0.044,-0.005 0.089,-0.008 0.134,-0.008l0.002,0.003z" id="svg_1"/>
  <path fill-opacity="0.3" fill="#e6be7b" d="m43.109,31.235c-0.488,0 -0.908,-0.354 -0.987,-0.841l-0.359,-2.232c-0.361,-0.098 -0.716,-0.22 -1.061,-0.364l-1.646,1.538c-0.376,0.352 -0.957,0.36 -1.344,0.02l-2.336,-2.058c-0.386,-0.34 -0.451,-0.919 -0.15,-1.336l1.32,-1.826c-0.188,-0.327 -0.355,-0.667 -0.498,-1.016l-2.24,-0.075c-0.515,-0.017 -0.932,-0.422 -0.964,-0.936l-0.196,-3.107c-0.032,-0.514 0.33,-0.968 0.839,-1.05l2.219,-0.357c0.1,-0.367 0.223,-0.725 0.369,-1.074l-1.528,-1.635c-0.352,-0.376 -0.36,-0.958 -0.02,-1.344l2.058,-2.336c0.341,-0.387 0.918,-0.452 1.336,-0.149l1.825,1.32c0.327,-0.187 0.666,-0.352 1.015,-0.495l0.075,-2.244c0.017,-0.515 0.423,-0.932 0.936,-0.965l3.108,-0.196c0.508,-0.035 0.968,0.331 1.05,0.84l0.359,2.233c0.36,0.099 0.714,0.221 1.059,0.367l1.648,-1.541c0.376,-0.352 0.958,-0.36 1.344,-0.02l2.336,2.058c0.386,0.34 0.451,0.919 0.15,1.336l-1.333,1.845c0.183,0.32 0.345,0.653 0.486,0.996l2.265,0.076c0.515,0.017 0.932,0.422 0.964,0.936l0.196,3.108c0.032,0.514 -0.33,0.968 -0.839,1.05l-2.248,0.362c-0.097,0.355 -0.217,0.704 -0.36,1.045l1.551,1.658c0.352,0.376 0.36,0.958 0.02,1.344l-2.058,2.337c-0.34,0.387 -0.918,0.452 -1.336,0.15l-1.844,-1.333c-0.322,0.185 -0.655,0.348 -0.997,0.49l-0.076,2.262c-0.017,0.515 -0.423,0.932 -0.936,0.964l-3.107,0.196c-0.021,0.001 -0.042,0.002 -0.064,0.002l-0.001,-0.003zm-2.595,-5.63c0.157,0 0.315,0.037 0.461,0.113c0.582,0.303 1.204,0.516 1.848,0.634c0.417,0.076 0.74,0.407 0.808,0.825l0.322,2.003l1.295,-0.081l0.068,-2.028c0.014,-0.423 0.293,-0.792 0.696,-0.92c0.621,-0.197 1.209,-0.486 1.746,-0.857c0.349,-0.241 0.812,-0.236 1.155,0.012l1.656,1.196l0.858,-0.974l-1.392,-1.488c-0.289,-0.309 -0.352,-0.768 -0.157,-1.144c0.302,-0.582 0.515,-1.2 0.634,-1.837c0.077,-0.416 0.407,-0.737 0.824,-0.804l2.016,-0.324l-0.082,-1.296l-2.033,-0.068c-0.424,-0.014 -0.792,-0.294 -0.92,-0.698c-0.197,-0.624 -0.484,-1.212 -0.852,-1.748c-0.239,-0.348 -0.234,-0.81 0.013,-1.152l1.195,-1.654l-0.974,-0.858l-1.48,1.384c-0.31,0.29 -0.771,0.352 -1.147,0.156c-0.584,-0.306 -1.205,-0.521 -1.846,-0.64c-0.416,-0.077 -0.737,-0.407 -0.805,-0.824l-0.321,-2l-1.296,0.082l-0.067,2.013c-0.014,0.425 -0.295,0.794 -0.7,0.921c-0.628,0.196 -1.221,0.486 -1.764,0.86c-0.348,0.24 -0.809,0.235 -1.153,-0.013l-1.636,-1.183l-0.858,0.974l1.371,1.467c0.29,0.311 0.352,0.771 0.156,1.147c-0.304,0.58 -0.519,1.205 -0.64,1.86c-0.077,0.416 -0.407,0.738 -0.824,0.805l-1.988,0.32l0.082,1.295l2.008,0.067c0.424,0.014 0.792,0.294 0.92,0.698c0.198,0.628 0.489,1.221 0.864,1.761c0.242,0.349 0.237,0.812 -0.011,1.156l-1.184,1.638l0.973,0.858l1.476,-1.38c0.19,-0.178 0.436,-0.27 0.684,-0.27l0.001,-0.004z" id="svg_2"/>
  <path fill-opacity="0.3" fill="#e6be7b" d="m48.327,19.578c-0.15,-2.378 -2.211,-4.184 -4.586,-4.041c-2.378,0.15 -4.192,2.208 -4.043,4.588c0.146,2.286 2.053,4.048 4.312,4.048c0.091,0 0.183,-0.003 0.275,-0.009c2.38,-0.15 4.193,-2.208 4.042,-4.586zm-4.168,2.59c0,0 0,0 0,0c-1.264,0.082 -2.383,-0.893 -2.465,-2.17c-0.08,-1.279 0.895,-2.385 2.173,-2.466c0.049,-0.003 0.099,-0.004 0.147,-0.004c1.214,0 2.239,0.948 2.317,2.176c0.081,1.278 -0.894,2.384 -2.172,2.464z" id="svg_3"/>
  <path fill-opacity="0.3" fill="#e6be7b" d="m30.139,37.282c-0.584,-1.47 -1.707,-2.625 -3.162,-3.253s-3.066,-0.652 -4.536,-0.068s-2.624,1.708 -3.252,3.162c-0.628,1.455 -0.651,3.066 -0.067,4.536s1.707,2.624 3.162,3.251c0.755,0.325 1.552,0.489 2.349,0.489c0.739,0 1.479,-0.14 2.185,-0.421c1.47,-0.584 2.624,-1.707 3.252,-3.161c0.628,-1.456 0.652,-3.066 0.068,-4.535l0.001,0zm-1.905,3.742c-0.416,0.964 -1.181,1.708 -2.154,2.095s-2.039,0.371 -3.004,-0.046c-0.964,-0.416 -1.708,-1.18 -2.095,-2.153s-0.371,-2.04 0.045,-3.005c0.416,-0.965 1.181,-1.709 2.154,-2.096c0.468,-0.186 0.957,-0.279 1.447,-0.279c0.528,0 1.057,0.108 1.558,0.324c0.964,0.416 1.708,1.181 2.095,2.155s0.371,2.04 -0.045,3.004l-0.001,0.001z" id="svg_4"/>
 </g>
</svg>