<svg width="64" height="64" xmlns="http://www.w3.org/2000/svg">
 <g id="Layer_1">
  <title>Layer 1</title>
  <g fill-opacity="0.3" fill="#e6be7b">
   <title fill="#e6be7b">tw-dashboard-portal</title>
   <path stroke="null" d="m52.99,45.58371l-41.98,0c-1.68,0 -3.047,-1.07906 -3.047,-2.40439l0,-22.35864c0,-1.32613 1.367,-2.40518 3.047,-2.40518l41.977,0c1.68,0 3.047,1.07906 3.047,2.40518l0.003,22.35864c0,1.32613 -1.367,2.40518 -3.047,2.40518l0,-0.00079zm-41.981,-25.58949c-0.577,0 -1.047,0.371 -1.047,0.82646l0,22.35864c0,0.45546 0.47,0.82567 1.047,0.82567l41.98,0c0.577,0 1.047,-0.371 1.047,-0.82567l-0.003,-22.35864c0,-0.45546 -0.47,-0.82646 -1.047,-0.82646l-41.977,0z" fill="#e6be7b"/>
   <path d="m36.439,40.2695c-0.552,0 -1,-0.448 -1,-1l0,-3.888c0,-0.552 0.448,-1 1,-1s1,0.448 1,1l0,3.888c0,0.552 -0.448,1 -1,1z" fill="#e6be7b"/>
   <path d="m13.19,25.8395c-0.262,0 -0.52,-0.107 -0.707,-0.293s-0.293,-0.444 -0.293,-0.707c0,-0.067 0.009,-0.133 0.022,-0.196c0.009,-0.067 0.031,-0.129 0.053,-0.187c0.027,-0.062 0.058,-0.12 0.093,-0.173c0.036,-0.058 0.08,-0.107 0.124,-0.151c0.373,-0.373 1.04,-0.373 1.413,0c0.049,0.044 0.089,0.093 0.124,0.151c0.036,0.053 0.067,0.111 0.093,0.173c0.027,0.058 0.044,0.12 0.058,0.187c0.013,0.062 0.018,0.129 0.018,0.196c0,0.262 -0.107,0.52 -0.293,0.707s-0.444,0.293 -0.707,0.293l0.002,0z" fill="#e6be7b"/>
   <path d="m26.075,25.8395c-0.267,0 -0.524,-0.107 -0.707,-0.293c-0.049,-0.044 -0.089,-0.098 -0.124,-0.151c-0.04,-0.058 -0.067,-0.116 -0.093,-0.173c-0.027,-0.062 -0.044,-0.124 -0.058,-0.187c-0.013,-0.067 -0.018,-0.133 -0.018,-0.196c0,-0.067 0.004,-0.133 0.018,-0.196c0.013,-0.067 0.031,-0.129 0.058,-0.187c0.027,-0.062 0.053,-0.12 0.093,-0.173c0.036,-0.058 0.076,-0.107 0.124,-0.151c0.231,-0.236 0.573,-0.342 0.902,-0.276c0.062,0.013 0.124,0.031 0.187,0.058c0.058,0.027 0.116,0.058 0.173,0.093c0.053,0.036 0.102,0.076 0.151,0.124c0.044,0.044 0.089,0.093 0.124,0.151c0.036,0.053 0.067,0.111 0.093,0.173c0.022,0.058 0.04,0.12 0.053,0.187c0.013,0.062 0.022,0.129 0.022,0.196c0,0.062 -0.009,0.129 -0.022,0.196c-0.013,0.062 -0.031,0.124 -0.053,0.187c-0.027,0.058 -0.058,0.116 -0.093,0.173c-0.036,0.053 -0.08,0.107 -0.124,0.151c-0.049,0.044 -0.098,0.089 -0.151,0.124c-0.058,0.036 -0.116,0.067 -0.173,0.093c-0.062,0.022 -0.124,0.044 -0.187,0.053c-0.067,0.013 -0.133,0.022 -0.196,0.022l0.001,0.002z" fill="#e6be7b"/>
   <path d="m28.866,25.8395c-0.067,0 -0.133,-0.009 -0.196,-0.022c-0.067,-0.013 -0.129,-0.031 -0.187,-0.058c-0.062,-0.022 -0.12,-0.053 -0.173,-0.089s-0.107,-0.08 -0.151,-0.124c-0.049,-0.044 -0.089,-0.098 -0.124,-0.151c-0.036,-0.058 -0.067,-0.116 -0.093,-0.173c-0.027,-0.062 -0.044,-0.124 -0.058,-0.187c-0.013,-0.067 -0.018,-0.133 -0.018,-0.196c0,-0.267 0.107,-0.524 0.293,-0.707c0.044,-0.049 0.098,-0.089 0.151,-0.124s0.111,-0.067 0.173,-0.093c0.058,-0.027 0.12,-0.044 0.187,-0.058c0.129,-0.027 0.262,-0.027 0.391,0c0.062,0.013 0.124,0.031 0.187,0.058c0.058,0.027 0.12,0.058 0.173,0.093s0.107,0.076 0.151,0.124c0.187,0.187 0.293,0.44 0.293,0.707c0,0.262 -0.107,0.52 -0.293,0.707s-0.444,0.293 -0.707,0.293l0.001,0z" fill="#e6be7b"/>
   <path d="m31.657,25.8395c-0.067,0 -0.133,-0.009 -0.196,-0.022s-0.129,-0.031 -0.187,-0.053c-0.062,-0.027 -0.12,-0.058 -0.173,-0.093s-0.107,-0.08 -0.151,-0.124c-0.187,-0.187 -0.293,-0.444 -0.293,-0.707c0,-0.267 0.107,-0.524 0.293,-0.707c0.044,-0.049 0.098,-0.089 0.151,-0.124s0.111,-0.067 0.173,-0.093c0.058,-0.027 0.124,-0.044 0.187,-0.058c0.129,-0.027 0.262,-0.027 0.391,0c0.062,0.013 0.124,0.031 0.187,0.058s0.12,0.058 0.173,0.093c0.053,0.036 0.107,0.076 0.151,0.124c0.187,0.187 0.293,0.444 0.293,0.707s-0.106,0.52 -0.293,0.707c-0.044,0.044 -0.098,0.089 -0.151,0.124s-0.111,0.067 -0.173,0.093c-0.062,0.022 -0.124,0.04 -0.187,0.053c-0.067,0.013 -0.129,0.022 -0.196,0.022l0.001,0z" fill="#e6be7b"/>
   <path d="m34.448,25.8395c-0.067,0 -0.133,-0.009 -0.196,-0.022s-0.128,-0.031 -0.187,-0.053c-0.062,-0.027 -0.12,-0.058 -0.173,-0.093s-0.107,-0.08 -0.151,-0.124c-0.049,-0.049 -0.089,-0.098 -0.124,-0.151c-0.036,-0.058 -0.066,-0.116 -0.093,-0.173c-0.022,-0.062 -0.044,-0.124 -0.058,-0.187c-0.013,-0.067 -0.018,-0.133 -0.018,-0.196c0,-0.067 0.004,-0.133 0.018,-0.196c0.013,-0.067 0.036,-0.129 0.058,-0.187c0.027,-0.062 0.058,-0.12 0.093,-0.173s0.076,-0.107 0.124,-0.151c0.044,-0.049 0.098,-0.089 0.151,-0.124s0.111,-0.067 0.173,-0.093c0.058,-0.027 0.124,-0.044 0.187,-0.058c0.329,-0.067 0.672,0.04 0.902,0.276c0.045,0.044 0.089,0.098 0.124,0.151s0.067,0.111 0.093,0.173c0.022,0.058 0.044,0.12 0.058,0.187c0.013,0.062 0.018,0.129 0.018,0.196c0,0.062 -0.004,0.129 -0.018,0.196c-0.013,0.062 -0.036,0.124 -0.058,0.187c-0.027,0.058 -0.058,0.116 -0.093,0.173c-0.036,0.053 -0.08,0.102 -0.124,0.151c-0.187,0.187 -0.444,0.293 -0.707,0.293l0.001,-0.002z" fill="#e6be7b"/>
   <path d="m37.239,25.8395c-0.262,0 -0.52,-0.107 -0.707,-0.293c-0.045,-0.049 -0.089,-0.098 -0.124,-0.151c-0.036,-0.058 -0.067,-0.116 -0.093,-0.173c-0.022,-0.062 -0.045,-0.124 -0.053,-0.187c-0.013,-0.067 -0.022,-0.133 -0.022,-0.196c0,-0.067 0.009,-0.133 0.022,-0.196c0.009,-0.067 0.031,-0.129 0.053,-0.187c0.027,-0.062 0.058,-0.12 0.093,-0.173c0.036,-0.058 0.08,-0.107 0.124,-0.151c0.044,-0.049 0.098,-0.089 0.151,-0.124s0.111,-0.067 0.173,-0.093s0.124,-0.044 0.187,-0.058c0.329,-0.062 0.671,0.04 0.902,0.276c0.044,0.044 0.089,0.093 0.124,0.151c0.036,0.053 0.066,0.111 0.093,0.173c0.022,0.058 0.044,0.12 0.058,0.187c0.013,0.062 0.018,0.129 0.018,0.196c0,0.062 -0.004,0.129 -0.018,0.196c-0.013,0.062 -0.036,0.124 -0.058,0.187c-0.027,0.058 -0.058,0.116 -0.093,0.173c-0.036,0.053 -0.08,0.102 -0.124,0.151c-0.044,0.044 -0.098,0.089 -0.151,0.124s-0.111,0.067 -0.174,0.093c-0.058,0.022 -0.124,0.04 -0.187,0.053s-0.129,0.022 -0.195,0.022l0.001,0z" fill="#e6be7b"/>
   <path d="m40.03,25.8395c-0.262,0 -0.52,-0.107 -0.707,-0.293c-0.044,-0.049 -0.088,-0.098 -0.124,-0.151c-0.036,-0.058 -0.067,-0.116 -0.093,-0.173c-0.023,-0.062 -0.04,-0.124 -0.053,-0.187c-0.013,-0.067 -0.023,-0.133 -0.023,-0.196c0,-0.067 0.009,-0.133 0.023,-0.196c0.013,-0.067 0.031,-0.129 0.053,-0.187c0.027,-0.062 0.058,-0.12 0.093,-0.173s0.08,-0.107 0.124,-0.151c0.045,-0.049 0.098,-0.089 0.151,-0.124s0.116,-0.067 0.174,-0.093c0.062,-0.027 0.124,-0.044 0.187,-0.058c0.129,-0.027 0.262,-0.027 0.391,0c0.062,0.013 0.129,0.031 0.187,0.058c0.062,0.027 0.12,0.058 0.173,0.093s0.107,0.076 0.152,0.124c0.187,0.187 0.293,0.444 0.293,0.707s-0.106,0.52 -0.293,0.707s-0.445,0.293 -0.708,0.293z" fill="#e6be7b"/>
   <path d="m42.821,25.8395c-0.262,0 -0.52,-0.107 -0.707,-0.293s-0.293,-0.444 -0.293,-0.707c0,-0.262 0.107,-0.52 0.293,-0.707c0.049,-0.049 0.098,-0.089 0.151,-0.124c0.058,-0.036 0.116,-0.067 0.174,-0.093c0.062,-0.027 0.124,-0.044 0.187,-0.058c0.129,-0.027 0.262,-0.027 0.391,0c0.066,0.013 0.129,0.031 0.187,0.058c0.062,0.027 0.12,0.058 0.173,0.093c0.058,0.036 0.107,0.076 0.151,0.124c0.187,0.187 0.293,0.444 0.293,0.707s-0.107,0.52 -0.293,0.707s-0.445,0.293 -0.707,0.293z" fill="#e6be7b"/>
   <path d="m19.8,25.8375l-3.888,0c-0.552,0 -1,-0.448 -1,-1s0.448,-1 1,-1l3.888,0c0.552,0 1,0.448 1,1s-0.448,1 -1,1z" fill="#e6be7b"/>
   <path d="m39.472,40.2695c-0.552,0 -1,-0.448 -1,-1l0,-5.443c0,-0.552 0.448,-1 1,-1s1,0.448 1,1l0,5.443c0,0.552 -0.448,1 -1,1z" fill="#e6be7b"/>
   <path d="m42.504,40.2695c-0.552,0 -1,-0.448 -1,-1l0,-2.566c0,-0.552 0.448,-1 1,-1s1,0.448 1,1l0,2.566c0,0.552 -0.448,1 -1,1z" fill="#e6be7b"/>
   <path d="m45.537,40.2695c-0.552,0 -1,-0.448 -1,-1l0,-8.242c0,-0.552 0.448,-1 1,-1s1,0.448 1,1l0,8.242c0,0.552 -0.448,1 -1,1z" fill="#e6be7b"/>
   <path d="m48.569,40.2695c-0.552,0 -1,-0.448 -1,-1l0,-3.888c0,-0.552 0.448,-1 1,-1s1,0.448 1,1l0,3.888c0,0.552 -0.448,1 -1,1z" fill="#e6be7b"/>
   <path d="m13.332,40.7275c-0.248,0 -0.496,-0.092 -0.69,-0.277c-0.4,-0.381 -0.415,-1.014 -0.033,-1.414l3.111,-3.259c0.317,-0.333 0.82,-0.406 1.22,-0.178l2.29,1.308l2.744,-4.242c0.173,-0.267 0.462,-0.436 0.779,-0.455c0.316,-0.017 0.625,0.114 0.828,0.358l3.023,3.627l1.893,-1.788c0.402,-0.38 1.035,-0.361 1.414,0.04s0.361,1.034 -0.04,1.414l-2.666,2.519c-0.2,0.189 -0.471,0.285 -0.746,0.271c-0.276,-0.016 -0.532,-0.146 -0.709,-0.358l-2.834,-3.401l-2.52,3.896c-0.288,0.445 -0.874,0.588 -1.336,0.325l-2.432,-1.389l-2.571,2.693c-0.196,0.205 -0.46,0.309 -0.724,0.309l-0.001,0.001z" fill="#e6be7b"/>
  </g>
 </g>

</svg>