<svg width="64" height="64" xmlns="http://www.w3.org/2000/svg">
 <title>tw-magnifying-glass</title>

 <g>
  <title>Layer 1</title>
  <path fill-opacity="0.3" id="svg_1" d="m49.887,32.928c-2.539,2.539 -5.952,3.968 -9.523,3.968s-6.984,-1.429 -9.523,-3.968c-2.539,-2.539 -3.968,-5.952 -3.968,-9.523s1.429,-6.984 3.968,-9.523c2.539,-2.539 5.952,-3.968 9.523,-3.968s6.984,1.429 9.523,3.968c5.236,5.316 5.236,13.806 0,19.045l0,0.001zm-22.778,5.632l-1.826,-1.826l3.332,-3.332l1.826,1.826l-3.332,3.332zm-0.474,3.571l-11.429,11.429c-0.397,0.397 -0.952,0.397 -1.348,0l-3.571,-3.571c-0.397,-0.397 -0.397,-0.952 0,-1.348l11.426,-11.426c0.158,-0.158 0.397,-0.316 0.636,-0.316s0.477,0.08 0.636,0.316l3.571,3.571c0.158,0.158 0.316,0.397 0.316,0.636c0.081,0.313 -0.077,0.552 -0.235,0.71l0,0l-0.002,-0.001zm24.6,-29.52c-2.858,-2.936 -6.745,-4.523 -10.794,-4.523c-4.126,0 -7.936,1.587 -10.871,4.523s-4.523,6.745 -4.523,10.871c0,3.016 0.874,5.871 2.461,8.413l-3.652,3.652c-1.11,-0.713 -2.539,-0.555 -3.571,0.397l-11.268,11.346c-1.11,1.11 -1.11,2.936 0,4.048l3.571,3.571c0.555,0.555 1.271,0.874 1.984,0.874s1.429,-0.316 1.984,-0.874l11.426,-11.426c0.555,-0.555 0.874,-1.271 0.874,-1.984c0,-0.555 -0.158,-1.032 -0.397,-1.507l3.652,-3.652c2.461,1.587 5.397,2.461 8.413,2.461c4.126,0 7.936,-1.587 10.871,-4.523c2.774,-2.861 4.361,-6.748 4.361,-10.874c0,-4.048 -1.587,-7.936 -4.523,-10.794l0,0l0.002,0.001z" fill="#e6be7b"/>
  <path fill-opacity="0.3" id="svg_2" d="m48.138,31.183c-0.158,0.158 -0.397,0.316 -0.636,0.316s-0.477,-0.08 -0.636,-0.316c-0.397,-0.397 -0.397,-0.952 0,-1.348c3.49,-3.49 3.49,-9.207 0,-12.778c-0.397,-0.397 -0.397,-0.952 0,-1.348s0.952,-0.397 1.348,0c4.21,4.284 4.21,11.188 -0.077,15.475l0,0l0.001,-0.001z" fill="#e6be7b"/>
 </g>
</svg>