<svg width="64" height="64" xmlns="http://www.w3.org/2000/svg" version="1.1">
 <title>tw-money</title>

 <g>
  <title>Layer 1</title>
  <path stroke="null" fill-opacity="0.3" fill="#e6c07b" d="m25.33333,37.583c0,1.748 -1.4174,3.16667 -3.16666,3.16667s-3.16667,-1.4174 -3.16667,-3.16667c0,-1.748 1.4174,-3.16667 3.16667,-3.16667s3.16666,1.4174 3.16666,3.16667z" id="svg_4"/>
  <path fill-opacity="0.3" fill="#e6c07b" d="m54.505,45.375c0,0.918 -0.791,1.704 -1.714,1.704c-37.569,0 -37.569,0 -37.569,0c-0.923,0 -1.714,-0.787 -1.714,-1.704c0,-15.997 0,-15.997 0,-15.997c0,-0.918 0.791,-1.573 1.714,-1.573c37.569,0 37.569,0 37.569,0c0.923,0 1.714,0.656 1.714,1.573l0,15.997zm-5.405,-19.144c-30.187,0 -30.187,0 -30.187,0c25.573,-5.9 25.573,-5.9 25.573,-5.9c0.659,1.442 2.241,2.36 3.823,2.36l0.791,3.54zm-39.018,1.18c-0.132,-0.524 -0.132,-0.918 0.132,-1.311s0.659,-0.656 1.055,-0.656c36.646,-8.523 36.646,-8.523 36.646,-8.523c0.923,-0.131 1.845,0.393 1.977,1.311c1.977,7.998 1.977,7.998 1.977,7.998c-1.186,0 -1.186,0 -1.186,0c-1.186,-5.376 -1.186,-5.376 -1.186,-5.376c-0.791,0.262 -0.791,0.262 -0.791,0.262c-1.318,0.262 -2.636,-0.524 -2.9,-1.836c-0.132,-0.787 -0.132,-0.787 -0.132,-0.787c-31.901,7.212 -31.901,7.212 -31.901,7.212c0.132,0.787 0.132,0.787 0.132,0.787c-1.186,0.393 -1.977,1.573 -1.977,2.884c0,6.294 0,6.294 0,6.294l-1.845,-8.26l-0.001,0.001zm43.369,-1.18c-1.977,-8.392 -1.977,-8.392 -1.977,-8.392c-0.396,-1.704 -2.109,-2.753 -3.955,-2.36c-36.646,8.391 -36.646,8.391 -36.646,8.391c-0.791,0.131 -1.582,0.656 -1.977,1.442c-0.527,0.656 -0.659,1.573 -0.396,2.36c3.427,15.079 3.427,15.079 3.427,15.079c0,2.622 0,2.622 0,2.622c0,1.836 1.45,3.278 3.296,3.278c37.569,0 37.569,0 37.569,0c1.845,0 3.296,-1.442 3.296,-3.278c0,-15.997 0,-15.997 0,-15.997c0,-1.573 -1.186,-2.884 -2.636,-3.146l-0.001,0.001z" id="svg_5"/>
  <path fill-opacity="0.3" fill="#e6c07b" d="m33.885,42.07c-1.852,0 -3.456,-1.98 -3.456,-4.487c0,-2.376 1.605,-4.487 3.456,-4.487c1.975,0 3.58,2.112 3.58,4.487c0,2.508 -1.604,4.487 -3.58,4.487zm0,-10.558c-2.716,0 -4.938,2.772 -4.938,6.071c0,3.431 2.222,6.071 4.938,6.071c2.839,0 5.061,-2.64 5.061,-6.071c0,-3.299 -2.222,-6.071 -5.061,-6.071z" id="svg_6"/>
  <path fill-opacity="0.3" fill="#e6c07b" d="m51.672,41.484c-1.558,0.264 -2.857,1.72 -3.116,3.439c-29.217,0 -29.217,0 -29.217,0c-0.26,-1.72 -1.558,-3.174 -3.116,-3.439c0,-8.068 0,-8.068 0,-8.068c1.558,-0.264 2.727,-1.587 3.116,-3.174c29.217,0 29.217,0 29.217,0c0.389,1.587 1.558,2.91 3.116,3.174l0,8.068zm-1.558,-12.035c0,-0.793 0,-0.793 0,-0.793c-32.333,0 -32.333,0 -32.333,0c0,0.793 0,0.793 0,0.793c0,1.323 -1.039,2.513 -2.337,2.513c-0.779,0 -0.779,0 -0.779,0c0,10.977 0,10.977 0,10.977c0.779,0 0.779,0 0.779,0c1.299,0 2.337,1.19 2.337,2.513l0,0.132c0,0.926 0,0.926 0,0.926c31.554,0 31.554,0 31.554,0c0.779,-0.132 0.779,-0.132 0.779,-0.132c0,-0.793 0,-0.793 0,-0.793l0,-0.132c0,-1.323 1.039,-2.513 2.337,-2.513c0.779,0 0.779,0 0.779,0c0,-10.977 0,-10.977 0,-10.977c-0.779,0 -0.779,0 -0.779,0c-1.299,0 -2.337,-1.19 -2.337,-2.513l0,-0.001z" id="svg_7"/>
  <polyline fill-opacity="0.3" fill="#e6c07b" points="40.33350372314453,20 40.33350372314453,20 " id="svg_8" stroke-linecap="round"/>
  <path stroke="null" fill-opacity="0.3" fill="#e6c07b" d="m48.33333,37.583c0,1.748 -1.4174,3.16667 -3.16666,3.16667s-3.16667,-1.4174 -3.16667,-3.16667c0,-1.748 1.4174,-3.16667 3.16667,-3.16667s3.16666,1.4174 3.16666,3.16667z" id="svg_10"/>
 </g>
</svg>