<svg width="64" height="64" xmlns="http://www.w3.org/2000/svg">
 <g>
  <title>background</title>
  <rect fill="none" id="canvas_background" height="9.999992" width="9.999992" y="-1" x="-1"/>
 </g>

 <g>
  <title>Layer 1</title>
  <path fill="#f71621" id="svg_2" d="m32.201686,14.666831c-4.349494,0 -7.889727,3.540234 -7.889727,7.889727s3.540233,7.889728 7.889727,7.889728s7.889728,-3.540234 7.889728,-7.889728s-3.540234,-7.889727 -7.889728,-7.889727zm0,13.525248c-3.107426,0 -5.63552,-2.528095 -5.63552,-5.635521s2.528094,-5.63552 5.63552,-5.63552s5.63552,2.528095 5.63552,5.63552s-2.528094,5.635521 -5.63552,5.635521z" stroke="null"/>
  <path fill="#ffffff" id="svg_3" d="m47.285719,7.472526c-4.08237,-4.082372 -9.510503,-6.330944 -15.283531,-6.330944c-5.774154,0 -11.201159,2.248572 -15.283529,6.330944c-7.554979,7.55385 -8.493856,21.766631 -2.033296,30.377706l17.316825,25.008184l17.290902,-24.973243c6.486484,-8.646014 5.547606,-22.858796 -2.007372,-30.412647l0.000001,0zm0.17921,29.095063l-15.462741,22.330184l-15.487535,-22.365125c-5.859813,-7.813085 -5.020121,-20.648544 1.798858,-27.466397c3.656325,-3.656325 8.517524,-5.67046 13.688677,-5.67046s10.032353,2.014135 13.689806,5.67046c6.818979,6.817853 7.658672,19.653312 1.772935,27.501338z" stroke="null"/>
  <g id="svg_4"/>
  <g id="svg_5"/>
  <g id="svg_6"/>
  <g id="svg_7"/>
  <g id="svg_8"/>
  <g id="svg_9"/>
  <g id="svg_10"/>
  <g id="svg_11"/>
  <g id="svg_12"/>
  <g id="svg_13"/>
  <g id="svg_14"/>
  <g id="svg_15"/>
  <g id="svg_16"/>
  <g id="svg_17"/>
  <g id="svg_18"/>
 </g>
</svg>