<svg width="64" height="64" xmlns="http://www.w3.org/2000/svg">
 <title>tw-tools</title>

 <g>
  <title>Layer 1</title>
  <path fill="#ffffff" id="svg_1" d="m13.46167,11.257l2.795,2.795l-1.267,1.267l-2.795,-2.795l1.267,-1.267zm0.791,6.223c0.21,0.21 0.474,0.317 0.737,0.317s0.527,-0.105 0.737,-0.317l0.686,-0.686l10.229,10.228c0.21,0.21 0.474,0.317 0.737,0.317s0.527,-0.105 0.737,-0.317c0.422,-0.422 0.422,-1.055 0,-1.423l-10.278,-10.283l0.581,-0.581c0.21,-0.21 0.317,-0.474 0.317,-0.737s-0.105,-0.527 -0.317,-0.737l-4.219,-4.219c-0.422,-0.422 -1.055,-0.422 -1.423,0l-2.742,2.742c-0.422,0.422 -0.422,1.055 0,1.423l4.217,4.272l0.001,0.001zm40.815,30.794c0.21,0.21 0.317,0.474 0.317,0.737s-0.105,0.527 -0.317,0.737l-4.272,4.272c-0.21,0.21 -0.474,0.317 -0.737,0.317s-0.527,-0.105 -0.737,-0.317l-0.053,-0.053l-14.765,-14.816c-0.422,-0.422 -0.422,-1.055 0,-1.423c0.422,-0.422 1.055,-0.422 1.423,0l14.132,14.132l2.847,-2.847l-14.132,-14.132c-0.422,-0.422 -0.422,-1.055 0,-1.423c0.422,-0.422 1.055,-0.422 1.423,0l14.872,14.816l-0.001,0zm-37.546,4.958c-0.527,0 -1.001,-0.053 -1.477,-0.159l5.591,-5.591c0.21,-0.21 0.317,-0.474 0.317,-0.737s-0.105,-0.527 -0.317,-0.737l-4.06,-4.06c-0.422,-0.422 -1.055,-0.422 -1.423,0l-5.591,5.693c-0.105,-0.474 -0.159,-1.001 -0.159,-1.528c0,-3.955 3.217,-7.119 7.119,-7.119c1.108,0 2.056,0.21 2.954,0.581c0.369,0.159 0.844,0.105 1.16,-0.21l18.297,-18.297c0.317,-0.317 0.369,-0.737 0.21,-1.16c-0.474,-1.005 -0.684,-1.901 -0.684,-2.904c0,-3.955 3.217,-7.119 7.119,-7.119c0.527,0 1.001,0.054 1.477,0.159l-5.537,5.537c-0.422,0.422 -0.422,1.055 0,1.423l4.06,4.06c0.21,0.21 0.474,0.317 0.737,0.317s0.527,-0.105 0.737,-0.317l5.591,-5.591c0.105,0.474 0.159,1.001 0.159,1.528c0,3.955 -3.217,7.119 -7.119,7.119c-1.055,0 -2.056,-0.21 -2.954,-0.632c-0.369,-0.159 -0.844,-0.105 -1.16,0.21l-18.349,18.302c-0.317,0.317 -0.369,0.737 -0.21,1.16c0.422,0.95 0.632,1.899 0.632,2.954c0.052,3.955 -3.166,7.119 -7.12,7.119l0,0l0,-0.001zm25.945,-27.579c1.001,0.369 2.056,0.581 3.164,0.581c5.061,-0.053 9.174,-4.167 9.174,-9.23c0,-1.372 -0.264,-2.636 -0.844,-3.85c-0.159,-0.317 -0.422,-0.527 -0.737,-0.581c-0.317,-0.054 -0.686,0.053 -0.896,0.264l-6.012,6.066l-2.636,-2.636l6.012,-5.959c0.264,-0.264 0.369,-0.579 0.264,-0.896c-0.053,-0.317 -0.264,-0.632 -0.581,-0.737c-1.16,-0.527 -2.427,-0.791 -3.796,-0.791c-5.009,-0.054 -9.123,4.06 -9.123,9.121c0,1.055 0.159,2.056 0.581,3.059l-17.35,17.35c-0.95,-0.317 -2.004,-0.527 -3.11,-0.527c-5.115,0.052 -9.228,4.165 -9.228,9.228c0,1.372 0.264,2.636 0.844,3.85c0.159,0.317 0.422,0.527 0.737,0.581c0.317,0.053 0.686,-0.053 0.896,-0.264l6.012,-6.066l2.636,2.636l-6.012,5.959c-0.21,0.21 -0.317,0.581 -0.264,0.896c0.053,0.317 0.264,0.632 0.581,0.737c1.16,0.527 2.427,0.791 3.796,0.791c5.063,0 9.174,-4.113 9.174,-9.174c0,-1.108 -0.21,-2.163 -0.581,-3.164l17.299,-17.243l0,-0.001z"/>
  <line fill-opacity="0.01" stroke-linecap="null" stroke-linejoin="null" id="svg_2" y2="48.3" x2="48.91667" y1="36.3" x1="37.08333" opacity="undefined" stroke-opacity="null" stroke-dasharray="null" stroke-width="null" stroke="null" fill="none"/>
 </g>
</svg>