<svg width="512" height="512" xmlns="http://www.w3.org/2000/svg">

 <g>
  <title>background</title>
  <rect fill="none" id="canvas_background" height="514" width="514" y="-1" x="-1"/>
 </g>
 <g>
  <title>Layer 1</title>
  <g stroke="null" id="svg_1">
   <g stroke="null" id="svg_2">
    <g stroke="null" id="svg_3">
     <g stroke="null" id="svg_23">
      <g stroke="null" id="svg_22">
       <path stroke="null" id="svg_5" d="m406.514473,51.350634l-148.513896,-34.944446c-1.315877,-0.305764 -2.685262,-0.305764 -4.001139,0l-148.513896,34.944446c-3.948722,0.929304 -6.737726,4.453233 -6.735542,8.508973l0,252.028081c0.117938,52.593575 27.941361,101.231876 73.217351,127.99277l79.603448,46.834294c2.733311,1.608537 6.124014,1.608537 8.858417,0l79.603448,-46.834294c45.27599,-26.760894 73.099413,-75.399195 73.217351,-127.99277l0,-252.028081c0.002184,-4.05574 -2.78682,-7.580761 -6.735542,-8.508973zm-10.736681,260.537054c-0.099373,46.410592 -24.650031,89.334384 -64.603545,112.949186l-75.17424,44.222197l-75.130559,-44.222197c-39.969894,-23.603881 -64.539116,-66.529857 -64.647225,-112.949186l0,-245.109081l139.777784,-32.89146l139.777784,32.89146l0,245.109081z"/>
      </g>
      <path stroke="null" fill="#f71621" id="svg_4" d="m306.203609,256.646072l17.749189,-0.10439l1.14829,195.241089c0.009091,1.168475 0.361177,2.308309 1.013267,3.277754l23.874366,35.359194c2.049751,2.706623 5.905331,3.239367 8.611954,1.189617c0.468283,-0.354792 0.883671,-0.775095 1.23293,-1.247519l23.456807,-35.637567c0.640643,-0.977048 0.979296,-2.120944 0.974642,-3.289446l-1.14829,-195.241089l17.74919,-0.10439c3.26733,-0.019217 5.900817,-2.683863 5.8816,-5.951193s-2.683863,-5.900817 -5.951193,-5.8816l-29.581983,0.173983l-0.591544,-100.578743c-0.019216,-3.26733 -2.683863,-5.900817 -5.951192,-5.8816l-23.665587,0.139186c-3.26733,0.019217 -5.900817,2.683863 -5.881601,5.951193l0.591544,100.578743l-29.581984,0.173983c-3.26733,0.019216 -5.900817,2.683863 -5.8816,5.951193s2.683863,5.900816 5.951193,5.8816zm40.788437,-106.738716l11.832793,-0.069594l0.556747,94.662346l-11.832793,0.069594l-0.556747,-94.662346zm-11.206454,106.564733l35.49838,-0.20878l1.137851,193.46617l-17.592605,26.728174l-17.905775,-26.519395l-1.137851,-193.46617z"/>
     </g>
    </g>
   </g>
  </g>
  <g id="svg_7"/>
  <g id="svg_8"/>
  <g id="svg_9"/>
  <g id="svg_10"/>
  <g id="svg_11"/>
  <g id="svg_12"/>
  <g id="svg_13"/>
  <g id="svg_14"/>
  <g id="svg_15"/>
  <g id="svg_16"/>
  <g id="svg_17"/>
  <g id="svg_18"/>
  <g id="svg_19"/>
  <g id="svg_20"/>
  <g id="svg_21"/>
 </g>
</svg>