<svg width="64" height="64" xmlns="http://www.w3.org/2000/svg">
 <g>
  <title>background</title>
  <rect fill="none" id="canvas_background" height="402" width="582" y="-1" x="-1"/>
 </g>
 <g>
  <title>Layer 1</title>
  <path id="svg_1" d="m31.556,40.142c-0.16,0 -0.32,-0.038 -0.466,-0.115l-23.15,-12.183c-0.328,-0.173 -0.534,-0.514 -0.534,-0.885s0.206,-0.712 0.534,-0.885l23.15,-12.183c0.292,-0.153 0.64,-0.153 0.932,0l23.15,12.183c0.328,0.173 0.534,0.514 0.534,0.885s-0.206,0.712 -0.534,0.885l-23.15,12.184c-0.146,0.076 -0.306,0.115 -0.466,0.115l0,-0.001zm-21.003,-13.183l21.003,11.053l21.003,-11.053l-21.003,-11.052l-21.003,11.052z" fill="#000"/>
  <path id="svg_2" d="m31.556,46.472c-0.134,0 -0.268,-0.027 -0.394,-0.081l-7.978,-3.416c-0.018,-0.008 -0.036,-0.016 -0.054,-0.025c-1.955,-0.979 -2.83,-2.872 -2.83,-4.313l0,-4.556l2,0l0,4.557c0,0.819 0.584,1.94 1.701,2.512l7.523,3.221l6.42,-3.212c1.648,-0.824 2.859,-2.028 2.87,-2.437c-0.003,-0.031 -0.004,-0.056 -0.004,-0.087l0,-4.555l2,0l0,4.516c0.145,2.227 -3.547,4.139 -3.972,4.352l-6.835,3.419c-0.14,0.07 -0.293,0.105 -0.447,0.105z" fill="#000"/>
  <path id="svg_3" d="m47.294,47.601c-0.108,0 -0.218,-0.018 -0.325,-0.055c-0.729,-0.251 -3.108,-1.208 -3.108,-2.973c0,-0.996 -0.159,-8.233 -0.206,-10.365l-12.109,-6.372c-0.489,-0.257 -0.676,-0.862 -0.419,-1.351s0.861,-0.676 1.351,-0.419l12.63,6.646c0.322,0.169 0.526,0.5 0.534,0.862c0.009,0.4 0.22,9.812 0.22,10.999c0.078,0.251 0.967,0.809 1.759,1.083c0.522,0.18 0.8,0.749 0.62,1.271c-0.143,0.415 -0.531,0.675 -0.946,0.675l-0.001,-0.001z" fill="#f71621"/>
  <path id="svg_4" d="m33.856,26.8885c0,1.018 -0.826,1.844 -1.844,1.844s-1.844,-0.826 -1.844,-1.844c0,-1.018 0.826,-1.844 1.844,-1.844s1.844,0.826 1.844,1.844z" fill="#f71621"/>
 </g>
</svg>