<svg width="512" height="512" xmlns="http://www.w3.org/2000/svg">

 <g>
  <title>background</title>
  <rect fill="none" id="canvas_background" height="514" width="514" y="-1" x="-1"/>
 </g>
 <g>
  <title>Layer 1</title>
  <g stroke="null" id="svg_1">
   <g stroke="null" id="svg_2">
    <g stroke="null" id="svg_3">
     <path stroke="null" fill="#f71621" transform="rotate(179.66302490234375 410.37499999999994,255.99999999999997) " id="svg_4" d="m475.374999,337.135126l-24.375,0l0,-268.125c-0.003047,-1.604688 -0.477344,-3.172813 -1.365,-4.509375l-32.5,-48.75c-2.792969,-3.733438 -8.083359,-4.496172 -11.816797,-1.703203c-0.645938,0.483438 -1.219766,1.057266 -1.703203,1.703203l-32.5,48.75c-0.887656,1.336562 -1.361953,2.904688 -1.365,4.509375l0,268.125l-24.375,0c-4.487031,0 -8.125,3.637969 -8.125,8.125s3.637969,8.125 8.125,8.125l40.625,0l0,138.125c0,4.487031 3.637969,8.125 8.125,8.125l32.5,0c4.487031,0 8.125,-3.637969 8.125,-8.125l0,-138.125l40.625,0c4.487031,0 8.125,-3.637969 8.125,-8.125s-3.637969,-8.125 -8.125,-8.125zm-56.875,146.25l-16.25,0l0,-130l16.25,0l0,130zm16.25,-146.25l-48.75,0l0,-265.6875l24.375,-36.5625l24.375,36.5625l0,265.6875z"/>
     <path stroke="null" id="svg_5" d="m314.735624,77.346376l-138.125,-32.5c-1.223828,-0.284375 -2.497422,-0.284375 -3.72125,0l-138.125,32.5c-3.6725,0.864297 -6.266406,4.141719 -6.264375,7.91375l0,234.398125c0.109687,48.914531 25.986797,94.150469 68.095625,119.039375l74.035,43.558125c2.542109,1.496016 5.695625,1.496016 8.23875,0l74.035,-43.558125c42.108828,-24.888906 67.985937,-70.124844 68.095625,-119.039375l0,-234.398125c0.002031,-3.772031 -2.591875,-7.050469 -6.264375,-7.91375zm-9.985625,242.311875c-0.092422,43.164063 -22.925703,83.085234 -60.084375,105.048125l-69.915625,41.12875l-69.875,-41.12875c-37.173906,-21.952734 -60.024453,-61.875937 -60.125,-105.048125l0,-227.963125l130,-30.590625l130,30.590625l0,227.963125z"/>
     <path stroke="null" id="svg_6" d="m172.889374,78.240126l-105.625,24.84625c-3.6725,0.864297 -6.266406,4.141719 -6.264375,7.91375l0,208.658125c0.082266,37.4075 19.870703,72.00375 52.073125,91.040625l57.5575,33.856875c2.542109,1.496016 5.695625,1.496016 8.23875,0l57.5575,-33.856875c32.202422,-19.036875 51.989844,-53.633125 52.073125,-91.040625l0,-208.658125c0.002031,-3.772031 -2.591875,-7.049453 -6.264375,-7.91375l-105.625,-24.84625c-1.223828,-0.284375 -2.497422,-0.284375 -3.72125,0zm99.360625,39.195l0,202.223125c-0.073125,31.649922 -16.812656,60.920234 -44.05375,77.033125l-53.44625,31.44375l-53.438125,-31.44375c-27.245156,-16.109844 -43.98875,-45.381172 -44.061875,-77.033125l0,-202.223125l97.5,-22.936875l97.5,22.936875z"/>
    </g>
   </g>
  </g>
  <g id="svg_7"/>
  <g id="svg_8"/>
  <g id="svg_9"/>
  <g id="svg_10"/>
  <g id="svg_11"/>
  <g id="svg_12"/>
  <g id="svg_13"/>
  <g id="svg_14"/>
  <g id="svg_15"/>
  <g id="svg_16"/>
  <g id="svg_17"/>
  <g id="svg_18"/>
  <g id="svg_19"/>
  <g id="svg_20"/>
  <g id="svg_21"/>
 </g>
</svg>