<!-- Generated by IcoMoon.io -->
<svg version="1.1" xmlns="http://www.w3.org/2000/svg" width="64" height="64" viewBox="0 0 64 64">
<title>tw-calendar</title>
<path fill="#000" d="M53.024 55.778h-41.926c-1.641 0-2.976-1.335-2.976-2.976v-37.487c0-1.641 1.335-2.976 2.976-2.976h41.926c1.641 0 2.976 1.335 2.976 2.976v37.487c0 1.641-1.335 2.976-2.976 2.976zM11.097 14.338c-0.538 0-0.976 0.438-0.976 0.976v37.487c0 0.539 0.438 0.976 0.976 0.976h41.926c0.539 0 0.976-0.438 0.976-0.976v-37.487c0-0.538-0.438-0.976-0.976-0.976h-41.926z"></path>
<path fill="#ed1a3d" d="M17.185 17c-0.552 0-1-0.448-1-1v-6.222c0-0.552 0.448-1 1-1s1 0.448 1 1v6.222c0 0.552-0.448 1-1 1z"></path>
<path fill="#ed1a3d" d="M46.815 17c-0.552 0-1-0.448-1-1v-6.222c0-0.552 0.448-1 1-1s1 0.448 1 1v6.222c0 0.552-0.448 1-1 1z"></path>
<path fill="#000" d="M26.376 23.866h4.728v4.728h-4.728v-4.728z"></path>
<path fill="#000" d="M32.896 23.866h4.728v4.728h-4.728v-4.728z"></path>
<path fill="#000" d="M39.418 23.866h4.728v4.728h-4.728v-4.728z"></path>
<path fill="#000" d="M45.939 23.866h4.728v4.728h-4.728v-4.728z"></path>
<path fill="#000" d="M13.333 30.305h4.728v4.728h-4.728v-4.728z"></path>
<path fill="#000" d="M19.854 30.305h4.728v4.728h-4.728v-4.728z"></path>
<path fill="#000" d="M26.376 30.305h4.728v4.728h-4.728v-4.728z"></path>
<path fill="#ed1a3d" d="M32.896 30.305h4.728v4.728h-4.728v-4.728z"></path>
<path fill="#000" d="M39.418 30.305h4.728v4.728h-4.728v-4.728z"></path>
<path fill="#000" d="M45.939 30.305h4.728v4.728h-4.728v-4.728z"></path>
<path fill="#000" d="M13.333 36.745h4.728v4.728h-4.728v-4.728z"></path>
<path fill="#000" d="M19.854 36.745h4.728v4.728h-4.728v-4.728z"></path>
<path fill="#000" d="M26.376 36.745h4.728v4.728h-4.728v-4.728z"></path>
<path fill="#000" d="M32.896 36.745h4.728v4.728h-4.728v-4.728z"></path>
<path fill="#000" d="M39.418 36.745h4.728v4.728h-4.728v-4.728z"></path>
<path fill="#000" d="M45.939 36.745h4.728v4.728h-4.728v-4.728z"></path>
<path fill="#000" d="M13.333 43.184h4.728v4.728h-4.728v-4.728z"></path>
<path fill="#000" d="M19.854 43.184h4.728v4.728h-4.728v-4.728z"></path>
<path fill="#000" d="M26.376 43.184h4.728v4.728h-4.728v-4.728z"></path>
<path fill="#000" d="M32.896 43.184h4.728v4.728h-4.728v-4.728z"></path>
<path fill="#000" d="M55.111 20.556h-45.926c-0.552 0-1-0.448-1-1s0.448-1 1-1h45.926c0.552 0 1 0.448 1 1s-0.448 1-1 1z"></path>
<path fill="#000" d="M44.925 55.592c-0.081 0-0.162-0.010-0.243-0.030l-0.148-0.037c-0.445-0.111-0.757-0.511-0.757-0.97v-9.667c0-0.552 0.448-1 1-1h9.852c0.404 0 0.769 0.244 0.924 0.617s0.069 0.804-0.217 1.090l-9.704 9.704c-0.19 0.19-0.445 0.293-0.707 0.293zM45.778 45.889v6.437l6.437-6.437h-6.437z"></path>
</svg>
