<!-- Generated by IcoMoon.io -->
<svg version="1.1" xmlns="http://www.w3.org/2000/svg" width="64" height="64" viewBox="0 0 64 64">
<title>tw-education</title>
<path fill="#000" d="M31.556 40.142c-0.16 0-0.32-0.038-0.466-0.115l-23.15-12.183c-0.328-0.173-0.534-0.514-0.534-0.885s0.206-0.712 0.534-0.885l23.15-12.183c0.292-0.153 0.64-0.153 0.932 0l23.15 12.183c0.328 0.173 0.534 0.514 0.534 0.885s-0.206 0.712-0.534 0.885l-23.15 12.184c-0.146 0.076-0.306 0.115-0.466 0.115zM10.553 26.959l21.003 11.053 21.003-11.053-21.003-11.052-21.003 11.052z"></path>
<path fill="#000" d="M31.556 46.472c-0.134 0-0.268-0.027-0.394-0.081l-7.978-3.416c-0.018-0.008-0.036-0.016-0.054-0.025-1.955-0.979-2.83-2.872-2.83-4.313v-4.556h2v4.557c0 0.819 0.584 1.94 1.701 2.512l7.523 3.221 6.42-3.212c1.648-0.824 2.859-2.028 2.87-2.437-0.003-0.031-0.004-0.056-0.004-0.087v-4.555h2v4.516c0.145 2.227-3.547 4.139-3.972 4.352l-6.835 3.419c-0.14 0.070-0.293 0.105-0.447 0.105z"></path>
<path fill="#ed1a3d" d="M47.294 47.601c-0.108 0-0.218-0.018-0.325-0.055-0.729-0.251-3.108-1.208-3.108-2.973 0-0.996-0.159-8.233-0.206-10.365l-12.109-6.372c-0.489-0.257-0.676-0.862-0.419-1.351s0.861-0.676 1.351-0.419l12.63 6.646c0.322 0.169 0.526 0.5 0.534 0.862 0.009 0.4 0.22 9.812 0.22 10.999 0.078 0.251 0.967 0.809 1.759 1.083 0.522 0.18 0.8 0.749 0.62 1.271-0.143 0.415-0.531 0.675-0.946 0.675z"></path>
<path fill="#ed1a3d" d="M33.856 26.951c0 1.018-0.826 1.844-1.844 1.844s-1.844-0.826-1.844-1.844c0-1.018 0.826-1.844 1.844-1.844s1.844 0.826 1.844 1.844z"></path>
</svg>
