<!-- Generated by IcoMoon.io -->
<svg version="1.1" xmlns="http://www.w3.org/2000/svg" width="64" height="64" viewBox="0 0 64 64">
<title>tw-partners</title>
<path fill="#000" d="M36.43 17.728c-0.365 0-0.698-0.222-0.835-0.568l-0.568-1.436c-0.056-0.143-0.136-0.295-0.242-0.459-0.248 0.043-0.554 0.076-0.915 0.076-0.802 0-1.662-0.155-2.557-0.461-0.213-0.073-0.409-0.143-0.59-0.208-0.415-0.148-0.983-0.35-1.28-0.35-0.132 0-0.443 0-1.596 1.513l-0.595 0.78c-0.22 0.288-0.592 0.417-0.942 0.324-0.351-0.092-0.612-0.385-0.662-0.744l-0.136-0.971c-0.135-0.955-0.206-2.798 0.826-4.406 0.97-1.51 2.639-2.442 4.96-2.769 0.235-0.033 0.469-0.050 0.696-0.050 1.836 0 3.032 1.089 3.592 1.946 0.35 0.123 0.826 0.379 1.236 0.906 0.768 0.986 1.009 2.525 0.716 4.575l-0.218 1.529c-0.058 0.403-0.38 0.717-0.784 0.765-0.035 0.004-0.070 0.006-0.105 0.006zM31.992 9.797c-0.144 0-0.293 0.011-0.445 0.032-1.78 0.251-3.024 0.911-3.699 1.961-0.404 0.628-0.561 1.331-0.604 1.952 0.814-0.891 1.439-1.216 2.198-1.216 0.563 0 1.16 0.196 1.882 0.454 0.176 0.063 0.365 0.13 0.571 0.2 0.706 0.241 1.371 0.364 1.975 0.364 0.597 0 0.922-0.127 0.925-0.128 0.375-0.176 0.791-0.060 1.051 0.261 0.006 0.007 0.011 0.013 0.016 0.020-0.019-0.943-0.24-1.46-0.459-1.741-0.226-0.29-0.463-0.332-0.489-0.335-0.309-0.036-0.6-0.232-0.732-0.515-0.023-0.048-0.656-1.31-2.19-1.31z"></path>
<path fill="#000" d="M31.572 23.080c-2.998 0-5.437-3.228-5.437-7.196 0-0.496 0.402-0.898 0.898-0.898s0.898 0.402 0.898 0.898c0 2.927 1.667 5.4 3.64 5.4s3.64-2.473 3.64-5.4c0-0.496 0.402-0.898 0.898-0.898s0.898 0.402 0.898 0.898c0.001 3.968-2.438 7.196-5.436 7.196z"></path>
<path fill="#000" d="M40.356 29.472h-17.566c-0.496 0-0.898-0.402-0.898-0.898v-0.562c0-2.32 1.464-4.391 3.647-5.166l1.531-0.669c0.341-0.149 0.738-0.073 0.999 0.192l0.17 0.172c0.852 0.861 2.322 1.312 3.335 1.312s2.483-0.451 3.336-1.314l0.17-0.172c0.261-0.264 0.658-0.34 0.998-0.191l1.531 0.669c2.183 0.776 3.646 2.847 3.646 5.165v0.563c-0.001 0.495-0.404 0.897-0.9 0.897zM23.703 27.675h15.739c-0.131-1.428-1.086-2.667-2.459-3.145-0.022-0.008-0.043-0.016-0.064-0.025l-1.011-0.441c-1.26 1.094-3.047 1.587-4.336 1.587s-3.077-0.493-4.335-1.586l-1.010 0.441c-0.021 0.009-0.043 0.018-0.065 0.025-1.373 0.477-2.328 1.716-2.459 3.144z"></path>
<path fill="#000" d="M22.54 44.188c-0.365 0-0.698-0.222-0.835-0.568l-0.568-1.436c-0.056-0.143-0.136-0.295-0.242-0.459-0.248 0.043-0.554 0.076-0.915 0.076-0.802 0-1.662-0.155-2.557-0.461-0.213-0.073-0.409-0.143-0.59-0.208-0.415-0.148-0.983-0.35-1.28-0.35-0.132 0-0.443 0-1.596 1.513l-0.595 0.78c-0.22 0.288-0.592 0.417-0.942 0.324-0.351-0.092-0.612-0.385-0.662-0.744l-0.136-0.971c-0.135-0.955-0.206-2.798 0.826-4.406 0.97-1.51 2.639-2.442 4.96-2.769 0.235-0.033 0.469-0.050 0.696-0.050 1.836 0 3.032 1.089 3.592 1.946 0.35 0.123 0.826 0.379 1.236 0.906 0.768 0.986 1.009 2.525 0.716 4.575l-0.218 1.529c-0.058 0.403-0.38 0.717-0.784 0.765-0.035 0.004-0.070 0.006-0.105 0.006zM18.103 36.257c-0.144 0-0.293 0.011-0.445 0.032-1.78 0.251-3.024 0.911-3.699 1.961-0.404 0.628-0.561 1.331-0.604 1.952 0.814-0.891 1.439-1.216 2.198-1.216 0.563 0 1.16 0.196 1.882 0.454 0.176 0.063 0.365 0.13 0.571 0.2 0.706 0.241 1.371 0.364 1.975 0.364 0.597 0 0.922-0.127 0.925-0.128 0.375-0.176 0.791-0.060 1.051 0.261 0.006 0.007 0.011 0.013 0.016 0.020-0.019-0.943-0.24-1.46-0.459-1.741-0.226-0.29-0.463-0.332-0.489-0.335-0.309-0.036-0.6-0.232-0.732-0.515-0.023-0.048-0.656-1.31-2.19-1.31z"></path>
<path fill="#000" d="M17.683 49.541c-2.998 0-5.437-3.228-5.437-7.196 0-0.496 0.402-0.898 0.898-0.898s0.898 0.402 0.898 0.898c0 2.927 1.667 5.4 3.64 5.4s3.64-2.473 3.64-5.4c0-0.496 0.402-0.898 0.898-0.898s0.898 0.402 0.898 0.898c0.001 3.968-2.438 7.196-5.436 7.196z"></path>
<path fill="#000" d="M26.466 55.932h-17.566c-0.496 0-0.898-0.402-0.898-0.898v-0.562c0-2.32 1.464-4.391 3.647-5.166l1.531-0.669c0.341-0.149 0.738-0.073 0.999 0.192l0.17 0.172c0.852 0.861 2.322 1.312 3.335 1.312s2.483-0.451 3.336-1.314l0.17-0.172c0.261-0.264 0.658-0.34 0.998-0.191l1.531 0.669c2.183 0.776 3.646 2.847 3.646 5.165v0.563c-0.001 0.495-0.404 0.897-0.9 0.897zM9.814 54.136h15.739c-0.131-1.428-1.086-2.667-2.459-3.145-0.022-0.008-0.043-0.016-0.064-0.025l-1.011-0.441c-1.26 1.094-3.047 1.587-4.336 1.587s-3.077-0.493-4.335-1.586l-1.010 0.441c-0.021 0.009-0.043 0.018-0.065 0.025-1.373 0.477-2.328 1.716-2.459 3.144z"></path>
<path fill="#000" d="M51.285 44.188c-0.365 0-0.698-0.222-0.835-0.568l-0.568-1.436c-0.056-0.143-0.136-0.295-0.242-0.459-0.248 0.043-0.554 0.076-0.915 0.076-0.802 0-1.662-0.155-2.557-0.461-0.213-0.073-0.409-0.143-0.59-0.208-0.415-0.148-0.983-0.35-1.28-0.35-0.132 0-0.443 0-1.596 1.513l-0.595 0.78c-0.22 0.288-0.592 0.417-0.942 0.324-0.351-0.092-0.612-0.385-0.662-0.744l-0.136-0.971c-0.135-0.955-0.206-2.798 0.826-4.406 0.97-1.51 2.639-2.442 4.96-2.769 0.235-0.033 0.469-0.050 0.696-0.050 1.836 0 3.032 1.089 3.592 1.946 0.35 0.123 0.826 0.379 1.236 0.906 0.768 0.986 1.009 2.525 0.716 4.575l-0.218 1.529c-0.058 0.403-0.38 0.717-0.784 0.765-0.035 0.004-0.070 0.006-0.105 0.006zM46.848 36.257c-0.144 0-0.293 0.011-0.445 0.032-1.78 0.251-3.024 0.911-3.699 1.961-0.404 0.628-0.561 1.331-0.604 1.952 0.814-0.891 1.439-1.216 2.198-1.216 0.563 0 1.16 0.196 1.882 0.454 0.176 0.063 0.365 0.13 0.571 0.2 0.706 0.241 1.371 0.364 1.975 0.364 0.597 0 0.922-0.127 0.925-0.128 0.375-0.176 0.791-0.060 1.051 0.261 0.006 0.007 0.011 0.013 0.016 0.020-0.019-0.943-0.24-1.46-0.459-1.741-0.226-0.29-0.463-0.332-0.489-0.335-0.309-0.036-0.6-0.232-0.732-0.515-0.023-0.048-0.656-1.31-2.19-1.31z"></path>
<path fill="#000" d="M46.428 49.541c-2.998 0-5.437-3.228-5.437-7.196 0-0.496 0.402-0.898 0.898-0.898s0.898 0.402 0.898 0.898c0 2.927 1.667 5.4 3.64 5.4s3.64-2.473 3.64-5.4c0-0.496 0.402-0.898 0.898-0.898s0.898 0.402 0.898 0.898c0.001 3.968-2.438 7.196-5.436 7.196z"></path>
<path fill="#000" d="M55.211 55.932h-17.566c-0.496 0-0.898-0.402-0.898-0.898v-0.562c0-2.32 1.464-4.391 3.647-5.166l1.531-0.669c0.341-0.149 0.738-0.073 0.999 0.192l0.17 0.172c0.852 0.861 2.322 1.312 3.335 1.312s2.483-0.451 3.336-1.314l0.17-0.172c0.261-0.264 0.658-0.34 0.998-0.191l1.531 0.669c2.183 0.776 3.646 2.847 3.646 5.165v0.563c-0.001 0.495-0.404 0.897-0.9 0.897zM38.559 54.136h15.739c-0.131-1.428-1.086-2.667-2.459-3.145-0.022-0.008-0.043-0.016-0.064-0.025l-1.011-0.441c-1.26 1.094-3.047 1.587-4.336 1.587s-3.077-0.493-4.335-1.586l-1.010 0.441c-0.021 0.009-0.043 0.018-0.065 0.025-1.373 0.477-2.328 1.716-2.459 3.144z"></path>
<path fill="#ed1a3d" d="M31.889 39.882c-0.552 0-1-0.448-1-1v-6.171c0-0.552 0.448-1 1-1s1 0.448 1 1v6.171c0 0.552-0.448 1-1 1z"></path>
<path fill="#ed1a3d" d="M26.546 42.968c-0.345 0-0.682-0.179-0.867-0.5-0.276-0.478-0.112-1.090 0.366-1.366l5.344-3.085c0.479-0.276 1.090-0.112 1.366 0.366s0.112 1.090-0.366 1.366l-5.344 3.085c-0.158 0.091-0.33 0.134-0.499 0.134z"></path>
<path fill="#ed1a3d" d="M37.232 42.968c-0.17 0-0.342-0.043-0.499-0.134l-5.344-3.085c-0.478-0.276-0.642-0.888-0.366-1.366s0.888-0.642 1.366-0.366l5.344 3.085c0.478 0.276 0.642 0.888 0.366 1.366-0.184 0.32-0.521 0.5-0.867 0.5z"></path>
</svg>
